<svg width="347" height="468" viewBox="0 0 347 468" fill="none" xmlns="http://www.w3.org/2000/svg">
    <path d="M171.26 467.51C227.593 467.51 273.26 459.451 273.26 449.51C273.26 439.569 227.593 431.51 171.26 431.51C114.927 431.51 69.26 439.569 69.26 449.51C69.26 459.451 114.927 467.51 171.26 467.51Z" fill="#96CDE6"/>
    <path d="M124 136C160.8 92 232 77.6666 263 76C361 76 339 240 346 277C353 314 324 390 209 409C94.0001 428 46.0001 396 18.0001 374C-9.99993 352 -4.99994 299 33.0001 272C71.0001 245 78.0001 191 124 136Z" fill="#6495FF"/>
    <path d="M78.0001 91C50.0001 95 26.0001 79.9999 52.0001 40C78.0001 -3.8147e-06 149 -17 169 23C189 63 106 87 78.0001 91Z" fill="#6495FF"/>
    <path d="M274.57 340.55C273.73 345.67 272.45 357.55 275.14 360.82C275.299 361.036 275.505 361.212 275.742 361.335C275.98 361.458 276.243 361.525 276.51 361.53C277.183 361.595 277.862 361.508 278.497 361.276C279.132 361.044 279.707 360.673 280.18 360.19C281.95 358.32 281.75 355.07 281.75 355.03C281.747 354.789 281.832 354.555 281.988 354.371C282.144 354.187 282.362 354.066 282.6 354.03C282.851 354 283.103 354.066 283.307 354.214C283.511 354.363 283.652 354.583 283.7 354.83C283.7 354.98 286.78 370.7 297.19 369.9C299.762 369.745 302.27 369.04 304.545 367.832C306.821 366.625 308.811 364.943 310.38 362.9C311.784 361.038 312.763 358.892 313.25 356.612C313.737 354.332 313.72 351.973 313.2 349.7C311.06 339.94 299.96 327.95 293.2 326C292.908 326.648 292.574 327.276 292.2 327.88C288.27 334.16 279.92 339.55 274.57 340.55Z" fill="#276FE2"/>
    <path d="M99.8101 278.46C95.1201 276.54 86.6701 270.02 84.3101 268.16C80.9001 270.83 77.7301 275.76 75.5901 279.1C74.8101 280.32 74.1901 281.29 73.7201 281.9C72.9332 282.828 71.9494 283.57 70.8401 284.07C72.8401 287.59 84.5701 307.23 97.1001 314.69C101.1 305.52 104.37 298.51 105.31 296.53C101.664 291.215 99.7434 284.905 99.8101 278.46Z" fill="#276FE2"/>
    <path d="M171.25 363.7C170.403 363.7 169.575 363.951 168.871 364.422C168.167 364.893 167.619 365.562 167.295 366.344C166.971 367.127 166.887 367.988 167.053 368.819C167.219 369.649 167.628 370.412 168.227 371.01C168.827 371.608 169.59 372.015 170.421 372.179C171.252 372.343 172.113 372.257 172.895 371.931C173.677 371.606 174.345 371.056 174.814 370.351C175.283 369.645 175.532 368.817 175.53 367.97C175.528 366.837 175.075 365.751 174.273 364.95C173.471 364.15 172.384 363.7 171.25 363.7Z" fill="#095782"/>
    <path d="M171.25 341.16C170.404 341.16 169.576 341.411 168.872 341.881C168.169 342.352 167.62 343.02 167.296 343.802C166.972 344.584 166.887 345.445 167.052 346.275C167.218 347.105 167.625 347.868 168.224 348.466C168.822 349.065 169.585 349.473 170.415 349.638C171.245 349.803 172.106 349.718 172.888 349.394C173.67 349.07 174.339 348.522 174.809 347.818C175.279 347.114 175.53 346.287 175.53 345.44C175.53 344.305 175.079 343.216 174.277 342.414C173.474 341.611 172.385 341.16 171.25 341.16Z" fill="#095782"/>
    <path d="M61.43 270.13C61.067 270.854 60.7627 271.607 60.52 272.38C60.5 272.508 60.463 272.632 60.41 272.75C59.8591 274.496 59.9585 276.382 60.69 278.06C62.2 281.27 64.36 282.96 66.95 282.96C67.9282 282.948 68.8938 282.738 69.7879 282.34C70.6819 281.943 71.4857 281.368 72.15 280.65C72.57 280.12 73.2 279.13 73.93 277.99C76.26 274.34 79.79 268.81 83.73 266.06C84.16 265.75 84.55 263.99 83.73 261.54C83.36 260.38 81.89 256.54 78.28 256.54C77.8897 256.54 77.5007 256.584 77.12 256.67C72.51 257.72 64.61 263.78 61.43 270.13Z" fill="#FFF4DC"/>
    <path d="M58.85 271.21C59.0845 270.528 59.3583 269.86 59.67 269.21C63 262.62 70.82 256.5 76.05 255C76.43 249.82 76.62 237.86 73.65 234.86C73.4728 234.659 73.2514 234.502 73.0033 234.402C72.7551 234.301 72.487 234.259 72.22 234.28C71.5419 234.293 70.8747 234.453 70.265 234.75C69.6553 235.047 69.1178 235.474 68.69 236C67.09 238 67.59 241.24 67.6 241.28C67.6068 241.513 67.532 241.741 67.3885 241.925C67.245 242.108 67.0419 242.236 66.8142 242.286C66.5865 242.336 66.3485 242.304 66.1414 242.198C65.9344 242.091 65.7712 241.915 65.68 241.7C65.68 241.55 61.24 226.22 50.88 227.91C48.3382 228.287 45.9066 229.205 43.7488 230.6C41.591 231.995 39.7569 233.837 38.37 236C37.1417 237.981 36.3611 240.207 36.083 242.522C35.8049 244.837 36.036 247.184 36.76 249.4C39.78 259 51.92 269.89 58.85 271.21Z" fill="#276FE2"/>
    <path d="M116.34 303.41C124.85 307.91 133.98 311.34 142.04 314.41C158.4 320.57 171.48 325.48 172.91 335.94C181.1 332.27 226.62 311.43 235.91 297.94C244.57 285.35 239.42 266.46 237.82 261.45C236.285 262.628 234.671 263.701 232.99 264.66C225.73 268.784 217.519 270.938 209.17 270.91C200.102 270.876 191.189 268.551 183.26 264.15C177.35 260.83 173.39 256.9 172.49 253.58C171.18 256.69 167.49 260.22 162.06 263.24C154.135 267.641 145.225 269.966 136.16 270C127.811 270.031 119.599 267.876 112.34 263.75C109.827 262.351 107.479 260.674 105.34 258.75C103 264.9 94.4901 291.84 116.34 303.41Z" fill="#FFF4DC"/>
    <path d="M113.3 262C130.51 271.76 149.3 268.13 161.09 261.49C167.03 258.14 170.15 254.64 170.89 252.27C163.53 251.95 157.17 249.68 154.04 246.15C153.213 245.269 152.592 244.216 152.22 243.066C151.849 241.916 151.736 240.698 151.89 239.5C152.033 238.344 152.336 237.213 152.79 236.14C150.43 234.68 141.71 230.36 128.57 236.54C116.78 242.09 111.11 238.34 109.21 236.47C108.293 235.564 107.586 234.467 107.138 233.257C106.691 232.048 106.514 230.755 106.62 229.47C103.76 232.95 99.6202 239.28 100.41 246.13C101.08 252.21 105.42 257.54 113.3 262Z" fill="#FFF4DC"/>
    <path d="M173.26 181.07C199.66 181.07 219.74 191.07 228.41 198.65C225.85 187.74 214.65 150.71 179.47 143.37C142.58 135.68 114.32 162 108.53 167.9C109.907 168.512 111.115 169.449 112.05 170.63C113.46 172.487 114.351 174.685 114.63 177C115.998 177.179 117.31 177.659 118.47 178.406C119.631 179.153 120.611 180.149 121.34 181.32C123.8 185.2 123.83 191 121.45 198.6C136.323 187.219 154.532 181.058 173.26 181.07Z" fill="#276FE2"/>
    <path d="M118.71 218.19H118.94C121.05 218.19 124.32 216.19 128.45 213.62C137.73 207.89 151.74 199.24 173.26 199.24C194.08 199.24 207.82 208.61 216.03 214.24C219.28 216.46 221.85 218.24 223.22 218.24C227.8 218.24 231.12 210.53 231.12 205.33C230.917 204.226 230.371 203.215 229.56 202.44C229.362 202.331 229.207 202.158 229.12 201.95C222.91 195.17 202.54 183 173.26 183C138.45 183 117.77 204.3 116.9 205.21C115.08 207.11 115.25 212 116.55 215.38C117.27 217.26 118.16 218.15 118.71 218.19Z" fill="#FFF4DC"/>
    <path d="M153.71 234.41C156.48 230.14 162.09 227.71 169.71 227.71C178.11 227.71 186.54 230.85 190.21 235.34C190.27 235.41 190.3 235.49 190.36 235.56C193.26 233.89 203.58 229.08 217.6 235.68C217.89 235.82 218.18 235.92 218.47 236.05C217.32 229 213.61 216.62 213 214.53C204.82 209.03 192 201.22 173.28 201.22C153.21 201.22 139.78 208.98 130.7 214.57C129.88 216.74 124.7 230.39 123.5 236.4C124.954 235.958 126.374 235.414 127.75 234.77C141.49 228.29 150.86 232.68 153.71 234.41ZM183.71 222.53C185.71 219.79 188.64 216.53 193.5 215.85C199.39 215.02 205.29 218.27 207.23 223.45C207.318 223.696 207.307 223.966 207.198 224.203C207.09 224.44 206.893 224.626 206.65 224.72C206.537 224.759 206.419 224.78 206.3 224.78C206.1 224.777 205.906 224.715 205.742 224.601C205.578 224.487 205.452 224.326 205.38 224.14C203.79 219.87 198.69 217.14 193.78 217.8C190.51 218.28 187.97 220.04 185.3 223.69C185.236 223.822 185.144 223.938 185.03 224.03C184.917 224.122 184.784 224.188 184.642 224.224C184.5 224.259 184.352 224.263 184.209 224.235C184.065 224.207 183.929 224.148 183.811 224.061C183.693 223.975 183.595 223.864 183.524 223.736C183.454 223.608 183.412 223.465 183.402 223.319C183.393 223.173 183.415 223.027 183.469 222.89C183.522 222.754 183.604 222.631 183.71 222.53ZM138.49 223.45C140.42 218.27 146.33 215.01 152.22 215.85C157.08 216.56 160.01 219.79 162.01 222.53C162.116 222.631 162.198 222.754 162.251 222.89C162.305 223.027 162.327 223.173 162.318 223.319C162.308 223.465 162.266 223.608 162.196 223.736C162.125 223.864 162.027 223.975 161.909 224.061C161.791 224.148 161.655 224.207 161.511 224.235C161.368 224.263 161.22 224.259 161.078 224.224C160.936 224.188 160.803 224.122 160.69 224.03C160.576 223.938 160.484 223.822 160.42 223.69C157.74 220.04 155.21 218.28 151.94 217.8C147.04 217.09 141.94 219.87 140.34 224.14C140.267 224.328 140.14 224.49 139.974 224.604C139.808 224.718 139.611 224.779 139.41 224.78C139.294 224.78 139.179 224.76 139.07 224.72C138.945 224.678 138.83 224.612 138.73 224.526C138.631 224.439 138.55 224.334 138.491 224.216C138.433 224.098 138.398 223.97 138.389 223.838C138.38 223.707 138.398 223.575 138.44 223.45H138.49Z" fill="#FAB382"/>
    <path d="M200.79 433.76C196.66 433.699 192.652 432.346 189.33 429.89C189.43 431.15 189.5 432.43 189.56 433.69C189.84 439.85 190.1 445.69 194.28 448.97C196.64 450.84 216.79 453.16 223.61 450.42C224.38 450.11 225.32 449.59 225.41 448.89C225.94 445.04 213.68 437.11 205.55 432.84C204.046 433.479 202.424 433.793 200.79 433.76Z" fill="#095782"/>
    <path d="M106.83 169.37C106.568 169.407 106.302 169.339 106.09 169.18C105.481 169.061 104.861 169.001 104.24 169C102.389 169.058 100.569 169.498 98.8967 170.293C97.2238 171.088 95.7337 172.221 94.5201 173.62C93.7824 174.419 93.2298 175.371 92.9014 176.408C92.573 177.445 92.477 178.542 92.6201 179.62C93.7001 185.68 98.9801 187.83 103.17 187.83C105.084 187.846 106.972 187.393 108.67 186.51C109.689 185.956 110.57 185.179 111.247 184.237C111.924 183.295 112.38 182.212 112.58 181.07C112.883 179.478 112.855 177.841 112.499 176.26C112.143 174.679 111.466 173.188 110.51 171.88C109.573 170.683 108.287 169.806 106.83 169.37Z" fill="#FFF4DC"/>
    <path d="M172.16 384.81C128.32 384.81 89.5501 363.92 82.5401 359.92C81.0001 366 80.2001 371.08 80.7301 374.33C82.4201 384.67 116.19 399 175.22 399C236.22 399 261.1 372.89 263.47 367.75C264.3 365.96 263.59 360.01 261.9 352.18C254.76 357.51 216 384.81 172.16 384.81Z" fill="#FFF4DC"/>
    <path d="M139.1 433.76C137.469 433.792 135.851 433.478 134.35 432.84C126.21 437.11 113.95 445.05 114.48 448.89C114.58 449.59 115.48 450.11 116.28 450.42C123.11 453.16 143.28 450.84 145.62 448.97C149.79 445.66 150.06 439.85 150.34 433.69C150.34 432.43 150.47 431.15 150.56 429.89C147.24 432.349 143.231 433.702 139.1 433.76Z" fill="#095782"/>
    <path d="M134.78 430.89C138.04 432.68 146.01 432 151.07 426.89C155.47 422.43 157.63 404.36 158.07 400.56C146.222 400.004 134.424 398.644 122.76 396.49C127.08 412.73 132.66 429.72 134.78 430.89Z" fill="#276FE2"/>
    <path d="M188.82 426.87C193.89 432 201.82 432.68 205.11 430.87C207.23 429.7 213.17 412.56 217.89 396.07C206.096 398.948 194.027 400.547 181.89 400.84C182.38 405.28 184.54 422.53 188.82 426.87Z" fill="#276FE2"/>
    <path d="M172.44 338.26C172.319 338.319 172.185 338.35 172.05 338.35C171.861 338.351 171.677 338.295 171.52 338.19C171.386 338.104 171.275 337.988 171.195 337.851C171.115 337.713 171.068 337.559 171.06 337.4C170.71 327.26 157.75 322.4 141.34 316.22C133.23 313.17 124.04 309.71 115.42 305.15C112.098 303.425 109.133 301.087 106.68 298.26C103.46 305.12 89.0001 336.61 83.0601 358C88.4201 361.11 127.66 382.89 172.16 382.89C217.33 382.89 257.09 353.44 261.43 350.12C258.729 338.582 255.302 327.226 251.17 316.12V316C247.6 306.51 243.74 298.25 240.26 294C239.529 295.784 238.614 297.486 237.53 299.08C227.06 314.24 174.67 337.29 172.44 338.26ZM171.25 374.26C170.014 374.26 168.806 373.894 167.779 373.207C166.751 372.521 165.95 371.546 165.477 370.404C165.003 369.263 164.879 368.006 165.119 366.794C165.36 365.582 165.954 364.469 166.827 363.594C167.7 362.72 168.813 362.124 170.025 361.881C171.236 361.639 172.493 361.761 173.635 362.233C174.777 362.704 175.754 363.504 176.442 364.53C177.13 365.557 177.498 366.764 177.5 368C177.49 369.652 176.827 371.232 175.656 372.397C174.485 373.562 172.902 374.217 171.25 374.22V374.26ZM171.25 351.73C170.014 351.73 168.806 351.363 167.778 350.677C166.75 349.99 165.949 349.014 165.476 347.872C165.003 346.73 164.879 345.473 165.12 344.261C165.361 343.048 165.957 341.935 166.831 341.061C167.705 340.187 168.818 339.591 170.031 339.35C171.243 339.109 172.5 339.233 173.642 339.706C174.784 340.179 175.76 340.98 176.447 342.008C177.134 343.035 177.5 344.244 177.5 345.48C177.487 347.13 176.823 348.708 175.653 349.871C174.482 351.034 172.9 351.687 171.25 351.69V351.73Z" fill="#276FE2"/>
    <path d="M172.66 250.38C180.53 250.38 189 247.77 190.18 241.96C190.36 241.008 190.317 240.028 190.053 239.096C189.789 238.164 189.312 237.306 188.66 236.59C185.34 232.52 177.54 229.68 169.66 229.68C166.23 229.68 154.95 230.41 153.81 239.75C153.697 240.671 153.787 241.605 154.076 242.486C154.365 243.368 154.844 244.175 155.48 244.85C158.48 248.21 165.22 250.38 172.66 250.38Z" fill="#E02828"/>
    <path d="M121.38 237C122.14 232.27 126.06 221.38 127.95 216.29C124.29 218.53 121.5 220.08 119.19 220.19C117.94 222.19 112.73 230.6 111.58 235.88C113.93 237.48 117.35 237.85 121.38 237Z" fill="#FFDCB1"/>
    <path d="M219.32 238.56C218.5 238.24 217.65 237.89 216.76 237.47C203.76 231.37 194.09 235.76 191.41 237.25C192.224 238.822 192.478 240.624 192.13 242.36C190.73 249.26 181.97 251.99 174.27 252.36C174.4 254.67 177.5 258.67 184.27 262.45C196.08 269.1 214.85 272.73 232.05 262.97C239.94 258.49 244.28 253.16 244.95 247.12C245.72 240.26 241.59 233.94 238.74 230.47C238.842 231.756 238.663 233.048 238.213 234.257C237.764 235.466 237.057 236.563 236.14 237.47C234.35 239.12 229.36 242.44 219.32 238.56Z" fill="#FFF4DC"/>
    <path d="M241 291.86C244.61 295.86 248.82 304.62 252.75 314.86C257.19 317.03 265.3 324.55 267.53 326.66C271.16 324.31 274.76 319.66 277.19 316.56C278.08 315.4 278.79 314.49 279.31 313.93C280.162 313.095 281.186 312.457 282.31 312.06C279.65 306.98 260.53 271.67 240.55 263.87C242.27 270.09 244.39 281.59 241 291.86Z" fill="#276FE2"/>
    <path d="M278.77 317.81C276.11 321.24 272.1 326.42 267.92 328.81C267.35 329.14 266.92 331.28 267.57 333.76C267.88 334.93 269.19 338.76 272.93 338.76C273.157 338.774 273.384 338.774 273.61 338.76C278.35 338.22 286.76 332.91 290.5 326.86C290.932 326.181 291.304 325.465 291.61 324.72C291.637 324.589 291.688 324.463 291.76 324.35C292.459 322.664 292.53 320.784 291.96 319.05C290.65 315.47 288.45 313.57 285.59 313.57C283.809 313.572 282.091 314.235 280.77 315.43C280.31 315.82 279.6 316.74 278.77 317.81Z" fill="#FFF4DC"/>
    <path d="M215.56 216.28C216.97 221.07 219.82 231.17 220.56 236.91C224.56 238.34 228.07 238.69 230.87 238C228.709 231.779 225.945 225.784 222.62 220.1C220.86 219.82 218.65 218.38 215.56 216.28Z" fill="#FFF4DC"/>
    <path d="M154 246.15C152.984 245.003 152.293 243.604 152 242.1C145.85 245.87 138.85 248.51 131.81 247.39L140.41 250.59C136.249 251.917 131.844 252.295 127.518 251.696C123.191 251.097 119.054 249.537 115.41 247.13C117.578 249.523 119.455 252.165 121 255C116.856 252.013 113.041 248.594 109.62 244.8C109.318 247.439 109.512 250.112 110.19 252.68C106.722 245.761 105.27 238.005 106 230.3C103.21 233.9 99.7101 239.81 100.42 246.16C101.1 252.16 105.42 257.53 113.32 262C130.53 271.76 149.32 268.14 161.1 261.49C167.04 258.14 170.17 254.64 170.91 252.27C163.54 252 157.17 249.68 154 246.15Z" fill="#FFDCB1"/>
    <path d="M239.31 231.18C239.17 231.78 238.96 232.38 238.84 232.97C238.39 235.19 239.09 237.47 239.06 239.73C238.96 246.29 233.06 251.04 227.65 254.8C228.899 252.683 229.526 250.257 229.46 247.8C225.692 251.227 221.13 253.662 216.186 254.884C211.241 256.106 206.07 256.077 201.14 254.8C203.949 254.792 206.65 253.72 208.7 251.8C201.729 252.85 194.61 251.465 188.54 247.88C184.96 250.74 179.38 252.03 174.26 252.25C174.38 254.57 177.49 258.56 184.26 262.35C196 269 214.8 272.67 232 262.91C239.88 258.43 244.22 253.1 244.9 247.06C245.62 240.68 242.1 234.77 239.31 231.18Z" fill="#FFDCB1"/>
    <path d="M237.16 261.88C235.826 262.88 234.429 263.795 232.98 264.62C225.721 268.746 217.509 270.901 209.16 270.87C200.095 270.836 191.185 268.511 183.26 264.11C177.35 260.79 173.39 256.86 172.49 253.54C171.17 256.65 167.44 260.18 162.06 263.2C154.135 267.603 145.225 269.928 136.16 269.96C127.808 269.989 119.593 267.835 112.33 263.71C109.818 262.309 107.47 260.632 105.33 258.71C103.01 264.9 94.48 291.83 116.33 303.4C124.83 307.9 133.96 311.34 142.02 314.4C157.43 320.2 169.91 324.9 172.52 334.15C173.44 329.381 173.06 324.452 171.42 319.88C172.231 320.345 173.131 320.634 174.062 320.729C174.992 320.824 175.932 320.722 176.82 320.43C170.96 316.581 166.215 311.26 163.06 305L159.64 309.67C158.48 306.29 158.059 302.7 158.404 299.143C158.749 295.586 159.852 292.144 161.64 289.05L154.25 293.05C158.93 281.64 173.83 275.74 185.05 280.85C182.586 277.648 180.744 274.011 179.62 270.13C186.374 275.853 194.43 279.829 203.08 281.71L197.73 274.36C202.149 277.366 207.35 279.016 212.694 279.107C218.038 279.197 223.292 277.725 227.81 274.87L221.07 275.18C227.618 272.415 233.212 267.791 237.16 261.88Z" fill="#FFDCB1"/>
    <path d="M108.6 185.19C106.585 184.857 104.699 183.979 103.146 182.652C101.594 181.325 100.433 179.599 99.7901 177.66C98.7231 179.047 97.9661 180.646 97.5701 182.35C97.5578 179.802 97.843 177.262 98.4201 174.78C97.3467 175.76 96.2801 176.743 95.2201 177.73C95.7373 174.778 97.2178 172.081 99.4301 170.06C97.541 170.848 95.8603 172.063 94.5201 173.61C93.7824 174.409 93.2298 175.361 92.9014 176.398C92.573 177.435 92.477 178.532 92.6201 179.61C93.7001 185.67 98.9801 187.82 103.17 187.82C105.084 187.836 106.972 187.383 108.67 186.5C109.275 186.177 109.833 185.773 110.33 185.3C109.751 185.313 109.172 185.277 108.6 185.19Z" fill="#FFDCB1"/>
    <path d="M214 211.16L216 207.46L204.08 206.33L206.36 204.64C197.65 200.903 188.484 198.334 179.1 197L182.53 194.64C169.75 192.213 156.524 194.287 145.1 200.51L146.1 197.58L137.77 203.12C138.107 200.325 138.947 197.615 140.25 195.12L134 199.32C135.936 195.53 138.541 192.122 141.69 189.26C126.24 195.61 117.46 204.62 116.9 205.21C115.08 207.11 115.25 212 116.55 215.38C117.27 217.26 118.16 218.15 118.71 218.19H118.94C121.05 218.19 124.32 216.19 128.45 213.62C137.73 207.89 151.74 199.24 173.26 199.24C194.08 199.24 207.82 208.61 216.03 214.24C219.28 216.46 221.85 218.24 223.22 218.24C226.04 218.24 228.39 215.31 229.77 211.84C224.514 212.534 219.177 212.304 214 211.16Z" fill="#FFDCB1"/>
    <path d="M221.37 226.91C222.642 227.971 224.105 228.778 225.68 229.29C222.697 226.703 220.762 223.114 220.24 219.2C218.626 218.316 217.064 217.341 215.56 216.28C216.97 221.07 219.82 231.17 220.56 236.91C221.703 237.323 222.872 237.657 224.06 237.91C223.66 236.63 223.27 235.35 222.87 234.07C224.1 235.103 225.54 235.857 227.09 236.28C224.944 233.309 223.032 230.177 221.37 226.91Z" fill="#FFDCB1"/>
    <path d="M286.49 316.71C287.505 316.034 288.649 315.578 289.85 315.37C289.315 314.77 288.658 314.291 287.924 313.963C287.189 313.636 286.394 313.468 285.59 313.47C283.809 313.472 282.091 314.135 280.77 315.33C280.31 315.82 279.6 316.74 278.77 317.81C276.11 321.24 272.1 326.42 267.92 328.81C267.35 329.14 266.92 331.28 267.57 333.76C267.88 334.93 269.19 338.76 272.93 338.76C273.157 338.774 273.384 338.774 273.61 338.76C276.397 338.239 279.047 337.146 281.39 335.55C280.994 335.523 280.605 335.429 280.24 335.27C279.56 334.852 279.038 334.219 278.759 333.47C278.48 332.722 278.459 331.902 278.7 331.14C279.222 329.633 280.08 328.265 281.21 327.14C279.946 327.801 278.601 328.295 277.21 328.61C280.138 325.183 283.558 322.211 287.36 319.79C285.401 320.043 283.499 320.621 281.73 321.5C283.061 319.668 284.667 318.053 286.49 316.71Z" fill="#FFDCB1"/>
    <path d="M71.56 269.61C71.63 269.41 71.7 269.2 71.76 269C71.6703 269.071 71.6035 269.166 71.5679 269.275C71.5324 269.383 71.5296 269.5 71.56 269.61Z" fill="#FFDCB1"/>
    <path d="M83.91 262C82.0692 263.137 80.3235 264.421 78.69 265.84L77.76 263L74.46 268.86C74.06 269.57 73.56 270.36 72.76 270.5C72.4864 270.521 72.2144 270.442 71.9939 270.279C71.7735 270.115 71.6194 269.878 71.56 269.61C70.93 271.31 69.72 273.08 68.09 272.61C66.46 272.14 66.36 270.15 66.41 268.61C65.5769 269.805 64.6578 270.938 63.66 272C63.6764 269.869 63.9449 267.748 64.46 265.68C63.2917 267.057 62.2852 268.564 61.46 270.17C61.0971 270.894 60.7928 271.647 60.55 272.42C60.53 272.548 60.493 272.672 60.44 272.79C59.8891 274.536 59.9886 276.422 60.72 278.1C62.23 281.31 64.39 283 66.98 283C67.9583 282.988 68.9239 282.778 69.8179 282.38C70.712 281.983 71.5157 281.408 72.18 280.69C72.6 280.16 73.23 279.17 73.96 278.03C76.29 274.38 79.82 268.85 83.76 266.1C84.15 265.81 84.5 264.23 83.91 262Z" fill="#FFDCB1"/>
    <path d="M252.84 378.32C237.84 385.04 221.32 388.84 205.09 392.18C199.002 393.588 192.807 394.488 186.57 394.87C176.27 395.23 166.08 392.87 156.04 390.51L159.65 394.64C149.258 393.452 139.102 390.715 129.52 386.52L131.8 390.47C126.14 389.08 122.36 382.75 123.35 377.1C109.173 372.844 95.4922 367.085 82.5401 359.92C81.0001 366 80.2001 371.08 80.7301 374.33C82.4201 384.67 116.19 399 175.22 399C215.63 399 240.18 387.55 252.84 378.32Z" fill="#FFDCB1"/>
    <path d="M128.54 376.55C125.6 373.13 122.89 369.55 121.78 365.22C120.7 361.06 121.23 356.67 121.95 352.43C122.7 347.96 123.73 343.35 126.56 339.8C129.91 335.6 135.43 333.53 140.8 333.41C146.17 333.29 151.45 334.9 156.4 336.99C159.74 338.4 163.06 340.09 165.53 342.74C165.55 342.769 165.574 342.796 165.6 342.82C166.256 341.375 167.439 340.236 168.907 339.635C170.375 339.034 172.017 339.016 173.498 339.586C174.978 340.156 176.185 341.27 176.872 342.7C177.558 344.13 177.672 345.769 177.19 347.28C181.682 345.362 186.267 343.673 190.93 342.22C205.93 337.04 220.55 329.47 231.46 317.87C237.46 311.51 242.37 302.59 240.05 294.38C239.359 296.008 238.512 297.565 237.52 299.03C227.06 314.24 174.67 337.29 172.44 338.26C172.319 338.319 172.185 338.35 172.05 338.35C171.861 338.351 171.677 338.295 171.52 338.19C171.386 338.104 171.275 337.988 171.195 337.851C171.115 337.713 171.068 337.559 171.06 337.4C170.71 327.26 157.75 322.4 141.34 316.22C133.23 313.17 124.04 309.71 115.42 305.15C112.098 303.425 109.133 301.087 106.68 298.26C103.46 305.12 89.0001 336.61 83.0601 358C97.4241 365.979 112.693 372.207 128.54 376.55Z" fill="#205CC6"/>
    <path d="M168.86 351.21C168.831 351.709 168.757 352.204 168.64 352.69C169.09 352.29 169.57 351.94 170.04 351.57C169.635 351.491 169.24 351.37 168.86 351.21Z" fill="#205CC6"/>
    <path d="M269.21 306.62C263.8 301.62 257.34 297.99 250.94 294.38C247.88 292.653 244.817 290.927 241.75 289.2C241.54 290.09 241.31 290.98 241.02 291.86C244.63 295.86 248.84 304.62 252.77 314.86C257.21 317.03 265.32 324.55 267.55 326.66C271.17 324.32 274.76 319.72 277.18 316.59C275.077 312.859 272.386 309.493 269.21 306.62Z" fill="#205CC6"/>
    <path d="M295.47 326.94C294.738 326.532 293.968 326.197 293.17 325.94C292.878 326.588 292.544 327.216 292.17 327.82C288.26 334.13 279.91 339.52 274.56 340.52C273.72 345.64 272.44 357.52 275.13 360.79C275.289 361.006 275.495 361.182 275.732 361.305C275.97 361.428 276.233 361.495 276.5 361.5C276.774 361.499 277.048 361.483 277.32 361.45C276.138 357.928 276.173 354.11 277.42 350.61C279.67 344.4 284.65 339.66 289.18 334.84C291.541 332.428 293.649 329.781 295.47 326.94Z" fill="#205CC6"/>
    <path d="M98.5901 296C89.1201 293.73 81.8701 286.84 75.5901 279.14C74.8101 280.37 74.1901 281.33 73.7201 281.94C72.9332 282.868 71.9494 283.61 70.8401 284.11C72.8401 287.63 84.5701 307.27 97.1001 314.73C100.9 305.97 104.1 299.19 105.17 296.87C102.954 296.791 100.751 296.5 98.5901 296Z" fill="#205CC6"/>
    <path d="M43.85 243.19C42.232 239.756 41.4605 235.984 41.6 232.19C40.3392 233.292 39.2505 234.576 38.37 236C37.1417 237.981 36.3611 240.207 36.083 242.522C35.8049 244.837 36.036 247.184 36.76 249.4C39.76 258.92 51.92 269.86 58.85 271.18C59.0845 270.498 59.3583 269.83 59.67 269.18C60.6865 267.237 61.943 265.43 63.41 263.8C54.8175 259.246 47.9487 252.009 43.85 243.19Z" fill="#205CC6"/>
    <path d="M189.66 243.47C182.02 246.9 172.52 246.37 165.66 241.47C163.487 240.106 161.844 238.043 161 235.62C160.585 234.057 160.793 232.393 161.58 230.98C157.94 232.26 154.47 234.78 153.86 239.75C153.746 240.671 153.837 241.605 154.126 242.486C154.414 243.368 154.894 244.175 155.53 244.85C158.53 248.21 165.24 250.38 172.68 250.38C179.81 250.38 187.43 248.22 189.66 243.47Z" fill="#C42222"/>
    <path d="M151.07 426.87C155.47 422.41 157.63 404.34 158.07 400.54C153.35 400.293 148.8 399.96 144.42 399.54C146.996 404.398 148.315 409.824 148.256 415.323C148.196 420.822 146.761 426.219 144.08 431.02C146.719 430.24 149.122 428.813 151.07 426.87Z" fill="#205CC6"/>
    <path d="M181.89 400.86C182.38 405.28 184.54 422.53 188.82 426.86C191.5 429.482 194.968 431.148 198.69 431.6C193.282 422.097 191.008 411.13 192.19 400.26C188.883 400.547 185.45 400.747 181.89 400.86Z" fill="#205CC6"/>
    <path d="M211.75 445.72C206.015 443.204 201.22 438.941 198.05 433.54C194.894 433.038 191.903 431.786 189.33 429.89C189.43 431.15 189.5 432.43 189.56 433.69C189.84 439.85 190.1 445.69 194.28 448.97C196.64 450.84 216.79 453.16 223.61 450.42C224.38 450.11 225.32 449.59 225.41 448.89C225.442 448.601 225.415 448.308 225.33 448.03C220.685 448.335 216.033 447.544 211.75 445.72Z" fill="#003F72"/>
    <path d="M134.05 445C128.191 448.397 121.428 449.909 114.68 449.33C115.111 449.82 115.663 450.189 116.28 450.4C123.11 453.14 143.28 450.82 145.62 448.95C149.79 445.64 150.06 439.83 150.34 433.67C150.34 432.41 150.47 431.13 150.56 429.87C149.209 430.865 147.737 431.685 146.18 432.31C143.362 437.561 139.169 441.948 134.05 445Z" fill="#003F72"/>
    <path d="M152 232.85C149.695 228.217 148.056 223.281 147.13 218.19C145.605 218.596 144.194 219.349 143.008 220.389C141.821 221.43 140.891 222.731 140.29 224.19C140.217 224.378 140.09 224.54 139.924 224.654C139.758 224.768 139.561 224.829 139.36 224.83C139.244 224.83 139.129 224.81 139.02 224.77C138.777 224.676 138.58 224.49 138.472 224.253C138.363 224.016 138.352 223.746 138.44 223.5C139.167 221.722 140.304 220.141 141.759 218.886C143.213 217.631 144.944 216.738 146.81 216.28C146.334 213.036 146.157 209.756 146.28 206.48C140.854 208.735 135.634 211.459 130.68 214.62C129.86 216.79 124.68 230.44 123.48 236.45C124.934 236.008 126.354 235.464 127.73 234.82C139.9 229.08 148.63 231.82 152.46 233.82C152.3 233.43 152.15 233.14 152 232.85Z" fill="#F79C6E"/>
    <path d="M196.6 153.54C196.36 152.36 195.22 151.74 194.28 151.13C193.34 150.52 192.16 149.6 191 149.62C190.51 149.62 190 150.16 190.2 150.67C190.806 151.664 191.674 152.47 192.71 153C193.71 153.72 194.83 154.59 196.14 154.32C196.299 154.269 196.434 154.162 196.519 154.018C196.604 153.874 196.633 153.704 196.6 153.54Z" fill="#517BE5"/>
    <path d="M210.93 166.7C207.84 162.76 203.87 156 198.57 155C198.11 154.91 197.57 155.52 198.06 155.88C201.98 158.98 204.92 162.88 207.94 166.88C209.66 169.14 211.29 171.473 212.83 173.88C214.11 175.88 214.58 177.88 216.26 179.58C216.34 179.659 216.439 179.716 216.548 179.745C216.657 179.774 216.771 179.774 216.88 179.746C216.988 179.718 217.088 179.662 217.169 179.584C217.249 179.506 217.309 179.408 217.34 179.3C218.11 174.58 213.6 170.09 210.93 166.7Z" fill="#517BE5"/>
    <path d="M176.89 232.7C176.341 231.959 175.53 231.457 174.623 231.295C173.716 231.133 172.781 231.325 172.01 231.83C171.902 231.9 171.82 232.003 171.774 232.123C171.728 232.243 171.721 232.375 171.754 232.499C171.787 232.623 171.859 232.733 171.959 232.815C172.059 232.896 172.182 232.943 172.31 232.95C173.689 232.92 175.067 233.04 176.42 233.31C176.74 233.37 177.13 233 176.89 232.7Z" fill="#E25252"/>
    <path d="M184.67 235.79C182.81 234.39 180.82 233.3 178.45 233.51C178.379 233.509 178.309 233.532 178.252 233.575C178.195 233.618 178.154 233.679 178.136 233.748C178.117 233.816 178.123 233.89 178.151 233.955C178.179 234.021 178.228 234.075 178.29 234.11C180.099 235.05 181.835 236.126 183.48 237.33C184.71 238.33 185.66 240.03 187.18 240.63C187.39 240.72 187.56 240.51 187.59 240.32C187.81 238.51 186 236.78 184.67 235.79Z" fill="#E25252"/>
    <path d="M53.0902 230.5C52.7188 230.17 52.2776 229.929 51.7996 229.793C51.3216 229.658 50.8192 229.633 50.3302 229.72C49.3562 229.738 48.4122 230.059 47.6302 230.64C47.5368 230.744 47.471 230.871 47.4388 231.007C47.4066 231.143 47.4089 231.285 47.4457 231.421C47.4825 231.556 47.5525 231.679 47.6493 231.781C47.7461 231.882 47.8668 231.957 48.0002 232C48.8898 232.115 49.7905 232.115 50.6802 232C51.5231 231.982 52.3494 231.763 53.0902 231.36C53.5002 231.24 53.3702 230.71 53.0902 230.5Z" fill="#517BE5"/>
    <path d="M63.25 241.9C63.2706 241.771 63.2706 241.639 63.25 241.51C62.25 238.24 59.52 234.03 56.43 232.4C56.3296 232.349 56.2155 232.33 56.1041 232.348C55.9928 232.366 55.89 232.419 55.8108 232.5C55.7316 232.58 55.6801 232.683 55.6638 232.795C55.6475 232.906 55.6671 233.02 55.72 233.12C56.55 234.58 57.72 235.82 58.61 237.24C59.5366 238.918 60.3744 240.644 61.12 242.41C61.1935 242.55 61.2968 242.672 61.4226 242.768C61.5484 242.863 61.6937 242.93 61.8482 242.964C62.0027 242.997 62.1626 242.996 62.3167 242.961C62.4708 242.926 62.6153 242.857 62.74 242.76V242.83C62.8794 242.758 62.9999 242.655 63.092 242.528C63.1841 242.401 63.245 242.255 63.27 242.1C63.2737 242.033 63.267 241.965 63.25 241.9Z" fill="#517BE5"/>
    <path d="M257.64 280.49C257.15 279.702 256.46 279.057 255.64 278.62C254.915 277.946 254.02 277.482 253.05 277.28C252.977 277.282 252.905 277.301 252.84 277.335C252.775 277.368 252.718 277.416 252.674 277.475C252.63 277.533 252.599 277.601 252.585 277.673C252.57 277.745 252.572 277.819 252.59 277.89C252.931 278.693 253.488 279.386 254.2 279.89C254.889 280.683 255.771 281.286 256.76 281.64C256.912 281.694 257.077 281.699 257.232 281.654C257.386 281.608 257.522 281.514 257.62 281.386C257.718 281.258 257.773 281.103 257.777 280.942C257.78 280.78 257.732 280.622 257.64 280.49Z" fill="#517BE5"/>
    <path d="M266.34 289.73C264.261 287.437 261.941 285.375 259.42 283.58C259.317 283.495 259.185 283.452 259.051 283.458C258.917 283.465 258.791 283.521 258.696 283.616C258.601 283.71 258.545 283.837 258.538 283.971C258.532 284.105 258.575 284.236 258.66 284.34C260.05 286.04 261.51 287.62 263.03 289.2C264.55 290.78 266.22 292.34 266.9 294.4C267.03 294.79 267.67 294.86 267.76 294.4C267.942 293.565 267.907 292.698 267.659 291.88C267.41 291.062 266.956 290.322 266.34 289.73Z" fill="#517BE5"/>
    <path d="M302.4 336.67C301.87 336.56 301.4 337.23 301.83 337.67C302.599 338.296 303.272 339.031 303.83 339.85C304.33 340.66 304.48 341.4 305.45 341.71C305.538 341.736 305.632 341.736 305.72 341.712C305.809 341.687 305.888 341.638 305.95 341.57C307.51 339.58 304.15 337 302.4 336.67Z" fill="#517BE5"/>
    <path d="M311.27 352.43C310.8 349.43 309.72 346.59 307.27 344.66C307.07 344.5 306.67 344.66 306.78 344.94C307.632 347.013 308.334 349.146 308.88 351.32C309.42 353.77 308.23 356.57 309.09 358.82C309.123 358.917 309.18 359.004 309.255 359.073C309.33 359.143 309.421 359.193 309.52 359.218C309.619 359.244 309.723 359.245 309.823 359.221C309.922 359.197 310.014 359.148 310.09 359.08C311.85 357.64 311.59 354.47 311.27 352.43Z" fill="#517BE5"/>
    <path d="M247.13 318.54C246.71 318.47 246.27 318.89 246.54 319.31C247.19 320.31 247.54 321.76 248.43 322.55C248.534 322.651 248.674 322.708 248.82 322.708C248.966 322.708 249.105 322.651 249.21 322.55C250.59 321 248.79 318.82 247.13 318.54Z" fill="#517BE5"/>
    <path d="M255 331.68C254.1 329.03 252.64 325.59 250 324.27C249.902 324.217 249.791 324.194 249.68 324.203C249.569 324.212 249.463 324.252 249.374 324.32C249.285 324.387 249.218 324.479 249.18 324.583C249.142 324.688 249.135 324.801 249.16 324.91C249.62 327.51 251.4 329.91 252.24 332.43C253.08 334.95 253.17 337.97 254.42 340.51C254.473 340.595 254.547 340.665 254.634 340.713C254.722 340.761 254.82 340.787 254.92 340.787C255.02 340.787 255.118 340.761 255.206 340.713C255.293 340.665 255.367 340.595 255.42 340.51C256.78 337.63 256 334.55 255 331.68Z" fill="#517BE5"/>
    <path d="M211.28 404.6C211.208 404.41 211.08 404.247 210.913 404.132C210.746 404.016 210.548 403.955 210.345 403.955C210.142 403.955 209.944 404.016 209.777 404.132C209.61 404.247 209.482 404.41 209.41 404.6C209.225 405.094 209.178 405.629 209.275 406.147C209.372 406.665 209.609 407.147 209.96 407.54C210.061 407.64 210.198 407.696 210.34 407.696C210.482 407.696 210.619 407.64 210.72 407.54C211.073 407.148 211.312 406.666 211.41 406.148C211.509 405.63 211.464 405.095 211.28 404.6Z" fill="#517BE5"/>
    <path d="M209 410.7C208.004 412.44 207.212 414.289 206.64 416.21C205.822 418.015 205.334 419.953 205.2 421.93C205.203 422.045 205.239 422.156 205.304 422.25C205.369 422.345 205.46 422.418 205.566 422.462C205.672 422.505 205.789 422.517 205.901 422.495C206.014 422.474 206.118 422.42 206.2 422.34C207.413 420.996 208.314 419.402 208.84 417.67C209.748 415.582 210.266 413.345 210.37 411.07C210.366 410.91 210.311 410.756 210.212 410.631C210.114 410.505 209.977 410.415 209.823 410.373C209.669 410.332 209.506 410.341 209.358 410.4C209.209 410.459 209.084 410.564 209 410.7Z" fill="#517BE5"/>
    <path d="M172.66 252.35C164.55 252.35 157.42 249.97 154.04 246.16C153.213 245.279 152.592 244.226 152.22 243.076C151.848 241.926 151.736 240.708 151.89 239.51C152.79 232.12 159.44 227.71 169.69 227.71C178.09 227.71 186.52 230.85 190.19 235.34C191.023 236.283 191.629 237.404 191.961 238.618C192.294 239.831 192.345 241.104 192.11 242.34C190.61 249.73 180.7 252.35 172.66 252.35ZM169.66 229.68C166.23 229.68 154.95 230.41 153.81 239.75C153.697 240.671 153.787 241.605 154.076 242.486C154.365 243.368 154.844 244.175 155.48 244.85C158.48 248.21 165.19 250.38 172.63 250.38C180.5 250.38 188.97 247.77 190.15 241.96C190.33 241.008 190.287 240.028 190.023 239.096C189.759 238.164 189.282 237.306 188.63 236.59C185.34 232.52 177.54 229.68 169.69 229.68H169.66Z" fill="#100049"/>
    <path d="M136.15 270C127.801 270.031 119.589 267.876 112.33 263.75C103.87 258.95 99.2002 253.11 98.4502 246.41C97.1902 235.15 107.45 225.69 107.86 225.29C108.032 225.152 108.244 225.074 108.464 225.069C108.684 225.064 108.9 225.131 109.078 225.261C109.256 225.391 109.386 225.576 109.447 225.787C109.509 225.999 109.5 226.225 109.42 226.43C107.96 229.63 108.42 232.95 110.6 235.11C113.92 238.4 120.33 238.28 127.73 234.8C144.04 227.12 154.21 234.72 154.64 235.05C154.844 235.212 154.976 235.446 155.01 235.704C155.043 235.961 154.975 236.222 154.82 236.43C154.659 236.633 154.424 236.766 154.167 236.799C153.909 236.833 153.649 236.765 153.44 236.61C153.05 236.31 143.74 229.44 128.57 236.61C116.78 242.16 111.11 238.41 109.21 236.54C108.293 235.634 107.586 234.537 107.138 233.327C106.691 232.118 106.514 230.825 106.62 229.54C103.76 233.02 99.6202 239.35 100.41 246.2C101.08 252.2 105.41 257.57 113.3 262.04C130.51 271.8 149.3 268.17 161.09 261.53C167.88 257.7 171 253.67 171.09 251.36C171.09 251.095 171.196 250.84 171.383 250.653C171.571 250.465 171.825 250.36 172.09 250.36C172.347 250.373 172.588 250.484 172.765 250.67C172.942 250.856 173.04 251.103 173.04 251.36C172.94 254.9 168.73 259.43 162.04 263.18C154.123 267.6 145.217 269.946 136.15 270Z" fill="#100049"/>
    <path d="M209.16 270.88C200.092 270.846 191.179 268.521 183.25 264.12C176.59 260.37 172.38 255.84 172.25 252.3C172.242 252.035 172.34 251.777 172.522 251.584C172.704 251.391 172.955 251.278 173.22 251.27C173.485 251.262 173.743 251.36 173.936 251.542C174.129 251.724 174.242 251.975 174.25 252.24C174.32 254.55 177.43 258.58 184.25 262.4C196.06 269.05 214.83 272.68 232.03 262.92C239.92 258.44 244.26 253.11 244.93 247.07C245.7 240.21 241.57 233.89 238.72 230.42C238.822 231.706 238.643 232.998 238.193 234.207C237.744 235.416 237.037 236.513 236.12 237.42C234.23 239.29 228.56 243.04 216.77 237.49C201.57 230.33 190.77 237.64 190.66 237.72C190.557 237.825 190.433 237.905 190.295 237.956C190.158 238.007 190.011 238.028 189.864 238.016C189.718 238.004 189.577 237.959 189.449 237.886C189.322 237.814 189.213 237.713 189.128 237.593C189.044 237.473 188.987 237.336 188.962 237.192C188.937 237.047 188.943 236.899 188.982 236.758C189.02 236.616 189.089 236.485 189.184 236.373C189.278 236.261 189.397 236.171 189.53 236.11C190.01 235.78 201.33 228.05 217.61 235.71C225.01 239.19 231.41 239.31 234.74 236.02C236.92 233.87 237.38 230.54 235.92 227.34C235.829 227.134 235.81 226.904 235.867 226.686C235.923 226.468 236.051 226.276 236.23 226.14C236.414 226.006 236.638 225.939 236.866 225.95C237.093 225.961 237.31 226.049 237.48 226.2C237.91 226.6 248.15 236.06 246.89 247.32C246.14 254.02 241.47 259.86 233.01 264.66C225.739 268.778 217.516 270.923 209.16 270.88Z" fill="#100049"/>
    <path d="M118.94 220.17H118.57C117 220 115.68 218.6 114.71 216.09C113.17 212.09 113.04 206.4 115.48 203.85C116.36 202.92 137.62 181.07 173.26 181.07C208.9 181.07 233.09 199.25 233.09 205.28C233.09 211.31 229.25 220.16 223.22 220.16C221.22 220.16 218.73 218.44 214.92 215.84C206.92 210.37 193.48 201.22 173.26 201.22C152.26 201.22 138.57 209.7 129.49 215.31C124.91 218.13 121.61 220.17 118.94 220.17ZM173.26 183C138.45 183 117.77 204.3 116.9 205.21C115.08 207.11 115.25 212 116.55 215.38C117.27 217.26 118.16 218.15 118.71 218.19H118.94C121.05 218.19 124.32 216.19 128.45 213.62C137.73 207.89 151.74 199.24 173.26 199.24C194.08 199.24 207.82 208.61 216.03 214.24C219.28 216.46 221.85 218.24 223.22 218.24C227.8 218.24 231.12 210.53 231.12 205.33C231.12 200.83 208.71 183 173.26 183Z" fill="#100049"/>
    <path d="M230 202.52C229.762 202.523 229.53 202.442 229.347 202.29C229.163 202.137 229.041 201.925 229 201.69C228.93 201.19 220.58 151.96 179.43 143.37C138.28 134.78 107.68 168.72 107.43 169.06C107.354 169.185 107.252 169.291 107.13 169.372C107.009 169.453 106.871 169.506 106.727 169.528C106.583 169.55 106.435 169.541 106.295 169.5C106.155 169.459 106.026 169.388 105.916 169.291C105.806 169.195 105.719 169.076 105.66 168.942C105.602 168.808 105.573 168.664 105.576 168.518C105.579 168.372 105.615 168.228 105.679 168.097C105.744 167.967 105.836 167.851 105.95 167.76C106.26 167.41 137.48 132.59 179.88 141.44C222.28 150.29 230.88 200.87 231 201.38C231.035 201.637 230.969 201.897 230.816 202.105C230.663 202.314 230.435 202.456 230.18 202.5L230 202.52Z" fill="#100049"/>
    <path d="M119.43 202.52C119.31 202.52 119.191 202.496 119.08 202.45C118.839 202.354 118.644 202.168 118.538 201.93C118.431 201.693 118.421 201.424 118.51 201.18C121.7 192.71 122.12 186.18 119.7 182.4C119.13 181.492 118.37 180.717 117.472 180.13C116.575 179.544 115.561 179.158 114.5 179C114.242 178.975 114.004 178.85 113.836 178.652C113.668 178.454 113.583 178.199 113.6 177.94C113.625 177.684 113.749 177.447 113.944 177.279C114.14 177.112 114.393 177.026 114.65 177.04C116.018 177.219 117.33 177.699 118.49 178.446C119.651 179.193 120.631 180.189 121.36 181.36C124.16 185.78 123.82 192.68 120.36 201.89C120.286 202.076 120.158 202.236 119.992 202.348C119.826 202.46 119.63 202.52 119.43 202.52Z" fill="#100049"/>
    <path d="M103.17 189.77C97.8301 189.77 91.9001 186.77 90.6901 179.95C90.4879 178.59 90.5902 177.201 90.9896 175.885C91.3891 174.569 92.0758 173.358 93.0001 172.34C94.3938 170.711 96.1149 169.393 98.0515 168.473C99.9881 167.553 102.097 167.051 104.24 167C105.733 166.956 107.215 167.259 108.57 167.885C109.926 168.512 111.117 169.445 112.05 170.61C113.188 172.144 113.995 173.899 114.418 175.761C114.842 177.624 114.873 179.555 114.51 181.43C114.259 182.857 113.686 184.208 112.836 185.381C111.985 186.554 110.879 187.518 109.6 188.2C107.619 189.244 105.41 189.784 103.17 189.77ZM104.24 169C102.389 169.058 100.57 169.498 98.8967 170.293C97.2239 171.088 95.7338 172.221 94.5201 173.62C93.7825 174.419 93.2298 175.371 92.9015 176.408C92.5731 177.445 92.4771 178.542 92.6201 179.62C93.7001 185.68 98.9801 187.83 103.17 187.83C105.084 187.846 106.972 187.393 108.67 186.51C109.689 185.956 110.57 185.179 111.247 184.237C111.924 183.295 112.38 182.212 112.58 181.07C112.883 179.478 112.855 177.841 112.499 176.26C112.143 174.679 111.466 173.188 110.51 171.88C109.757 170.95 108.799 170.206 107.712 169.707C106.624 169.207 105.436 168.966 104.24 169Z" fill="#100049"/>
    <path d="M110.48 237.24H110.31C110.057 237.191 109.832 237.046 109.683 236.836C109.534 236.625 109.472 236.365 109.51 236.11C110.57 229.82 117.51 219.11 117.82 218.66C117.876 218.524 117.961 218.403 118.07 218.304C118.178 218.205 118.307 218.131 118.447 218.087C118.587 218.044 118.735 218.032 118.881 218.052C119.026 218.072 119.165 218.123 119.288 218.203C119.411 218.283 119.515 218.389 119.593 218.514C119.671 218.638 119.72 218.778 119.737 218.924C119.754 219.07 119.74 219.217 119.693 219.357C119.647 219.496 119.571 219.623 119.47 219.73C119.39 219.84 112.47 230.56 111.47 236.44C111.424 236.668 111.299 236.872 111.119 237.018C110.938 237.164 110.712 237.242 110.48 237.24Z" fill="#100049"/>
    <path d="M232.11 239.65C231.9 239.647 231.696 239.578 231.527 239.452C231.358 239.326 231.233 239.151 231.17 238.95C228.48 229.88 222.43 219.78 222.37 219.68C222.292 219.461 222.292 219.222 222.371 219.004C222.45 218.785 222.603 218.601 222.803 218.483C223.002 218.364 223.237 218.319 223.467 218.355C223.696 218.391 223.906 218.506 224.06 218.68C224.31 219.1 230.29 229.08 233.06 238.39C233.132 238.641 233.104 238.909 232.98 239.139C232.857 239.369 232.649 239.542 232.4 239.62C232.306 239.646 232.208 239.656 232.11 239.65Z" fill="#100049"/>
    <path d="M219.67 238.62C219.424 238.622 219.187 238.533 219.002 238.371C218.818 238.208 218.7 237.984 218.67 237.74C217.9 230.62 212.91 214.36 212.86 214.2C212.793 214.07 212.756 213.928 212.75 213.782C212.744 213.636 212.77 213.491 212.826 213.357C212.882 213.222 212.967 213.101 213.075 213.003C213.182 212.905 213.31 212.831 213.449 212.787C213.588 212.744 213.735 212.731 213.88 212.75C214.025 212.769 214.163 212.82 214.286 212.898C214.409 212.977 214.514 213.081 214.592 213.204C214.67 213.327 214.721 213.465 214.74 213.61C214.94 214.29 219.84 230.22 220.63 237.53C220.653 237.789 220.573 238.047 220.409 238.248C220.245 238.45 220.008 238.58 219.75 238.61L219.67 238.62Z" fill="#100049"/>
    <path d="M122.25 238.8H122.15C121.892 238.77 121.655 238.64 121.491 238.438C121.327 238.237 121.248 237.979 121.27 237.72C121.81 232.3 128.67 214.32 128.96 213.56C129.081 213.357 129.269 213.203 129.493 213.125C129.716 213.048 129.96 213.052 130.18 213.137C130.401 213.222 130.584 213.383 130.698 213.59C130.811 213.797 130.847 214.038 130.8 214.27C130.73 214.45 123.74 232.76 123.22 237.92C123.191 238.159 123.077 238.379 122.899 238.541C122.721 238.703 122.491 238.795 122.25 238.8Z" fill="#100049"/>
    <path d="M172.05 338.35C171.861 338.351 171.677 338.295 171.52 338.19C171.386 338.104 171.275 337.988 171.195 337.851C171.115 337.713 171.068 337.559 171.06 337.4C170.71 327.26 157.75 322.4 141.34 316.22C133.23 313.17 124.04 309.71 115.42 305.15C89.1601 291.24 103.9 257 104.05 256.62C104.181 256.425 104.377 256.282 104.603 256.217C104.829 256.152 105.071 256.169 105.286 256.264C105.501 256.36 105.675 256.528 105.778 256.74C105.882 256.951 105.907 257.192 105.85 257.42C105.7 257.75 91.7001 290.36 116.34 303.42C124.85 307.92 133.98 311.35 142.04 314.42C158.4 320.58 171.48 325.49 172.91 335.95C181.1 332.28 226.62 311.44 235.91 297.95C245.91 283.41 237.48 260.43 237.4 260.2C237.312 259.956 237.321 259.687 237.428 259.45C237.534 259.212 237.729 259.026 237.97 258.93C238.216 258.842 238.486 258.853 238.723 258.962C238.96 259.07 239.146 259.267 239.24 259.51C239.61 260.51 248.13 283.67 237.53 299.07C227.07 314.28 174.68 337.33 172.45 338.3C172.322 338.347 172.186 338.364 172.05 338.35Z" fill="#100049"/>
    <path d="M175.22 401C118.3 401 80.8502 387.33 78.7902 374.67C76.0802 358 104.35 298.55 105.55 296C105.686 295.806 105.886 295.667 106.115 295.607C106.344 295.547 106.586 295.57 106.8 295.672C107.013 295.774 107.184 295.948 107.281 296.164C107.378 296.379 107.395 296.623 107.33 296.85C107.03 297.47 78.1202 358.28 80.7302 374.31C82.4202 384.67 116.19 399 175.22 399C236.22 399 261.1 372.89 263.47 367.75C266.37 361.46 250.41 304.12 239.2 292.75C239.02 292.564 238.919 292.314 238.919 292.055C238.919 291.796 239.02 291.546 239.2 291.36C239.387 291.177 239.638 291.074 239.9 291.074C240.162 291.074 240.413 291.177 240.6 291.36C251.6 302.5 268.82 360.83 265.26 368.55C262.29 375 237 401 175.22 401Z" fill="#100049"/>
    <path d="M172.16 384.81C123.93 384.81 81.83 359.52 81.41 359.26C81.1908 359.122 81.0338 358.904 80.9722 358.652C80.9106 358.4 80.9493 358.134 81.08 357.91C81.2184 357.691 81.4365 357.534 81.6884 357.472C81.9402 357.411 82.2061 357.449 82.43 357.58C82.85 357.84 124.5 382.84 172.16 382.84C219.82 382.84 261.43 350.08 261.84 349.75C262.047 349.59 262.308 349.517 262.568 349.546C262.828 349.576 263.065 349.707 263.23 349.91C263.387 350.116 263.459 350.375 263.429 350.632C263.399 350.89 263.27 351.126 263.07 351.29C262.65 351.63 220.46 384.81 172.16 384.81Z" fill="#100049"/>
    <path d="M171.25 351.69C170.014 351.69 168.805 351.323 167.778 350.637C166.75 349.95 165.949 348.974 165.476 347.832C165.003 346.69 164.879 345.433 165.12 344.221C165.361 343.008 165.957 341.895 166.831 341.021C167.705 340.147 168.818 339.551 170.031 339.31C171.243 339.069 172.5 339.193 173.642 339.666C174.784 340.139 175.76 340.94 176.447 341.968C177.133 342.995 177.5 344.204 177.5 345.44C177.497 347.097 176.838 348.685 175.667 349.856C174.495 351.028 172.907 351.687 171.25 351.69ZM171.25 341.16C170.404 341.16 169.576 341.411 168.872 341.881C168.168 342.352 167.62 343.02 167.296 343.802C166.972 344.584 166.887 345.445 167.052 346.275C167.217 347.105 167.625 347.868 168.224 348.466C168.822 349.065 169.585 349.473 170.415 349.638C171.245 349.803 172.106 349.718 172.888 349.394C173.67 349.07 174.338 348.522 174.809 347.818C175.279 347.114 175.53 346.287 175.53 345.44C175.53 344.305 175.079 343.216 174.276 342.414C173.474 341.611 172.385 341.16 171.25 341.16Z" fill="#100049"/>
    <path d="M171.25 374.22C170.013 374.22 168.803 373.853 167.775 373.165C166.746 372.477 165.945 371.499 165.473 370.355C165.001 369.211 164.879 367.953 165.123 366.74C165.366 365.526 165.964 364.413 166.841 363.54C167.719 362.667 168.835 362.074 170.049 361.836C171.264 361.599 172.521 361.727 173.663 362.204C174.804 362.682 175.778 363.488 176.461 364.52C177.145 365.551 177.506 366.763 177.5 368C177.49 369.652 176.827 371.232 175.656 372.397C174.485 373.562 172.902 374.217 171.25 374.22ZM171.25 363.7C170.403 363.7 169.575 363.951 168.871 364.422C168.167 364.893 167.619 365.562 167.295 366.344C166.971 367.127 166.887 367.988 167.053 368.819C167.219 369.649 167.628 370.412 168.227 371.01C168.827 371.608 169.59 372.015 170.421 372.179C171.252 372.343 172.113 372.257 172.895 371.931C173.677 371.606 174.345 371.056 174.814 370.351C175.283 369.645 175.532 368.817 175.53 367.97C175.528 366.837 175.075 365.751 174.273 364.95C173.471 364.15 172.384 363.7 171.25 363.7Z" fill="#100049"/>
    <path d="M200.79 433.76C195.79 433.712 191.002 431.738 187.42 428.25C182.03 422.79 179.9 400.94 179.81 400.01C179.788 399.749 179.868 399.49 180.035 399.288C180.201 399.086 180.44 398.958 180.7 398.93C180.961 398.908 181.22 398.988 181.422 399.155C181.624 399.321 181.752 399.56 181.78 399.82C181.78 400.04 183.92 421.9 188.78 426.87C193.85 432 201.78 432.68 205.07 430.87C207.26 429.66 213.54 411.37 218.34 394.39C218.415 394.142 218.582 393.933 218.808 393.806C219.034 393.679 219.3 393.645 219.55 393.71C219.8 393.784 220.011 393.954 220.138 394.182C220.265 394.41 220.298 394.678 220.23 394.93C218.56 400.83 210.04 430.38 206.02 432.59C204.4 433.405 202.603 433.807 200.79 433.76Z" fill="#100049"/>
    <path d="M213.24 453.68C204.79 453.68 195.17 452.19 193.05 450.51C188.18 446.65 187.88 440.11 187.59 433.78C187.5 431.78 187.4 429.62 187.14 427.69C187.123 427.559 187.132 427.425 187.166 427.297C187.201 427.17 187.26 427.05 187.341 426.945C187.504 426.733 187.745 426.595 188.01 426.56C188.275 426.526 188.543 426.598 188.755 426.761C188.967 426.924 189.106 427.165 189.14 427.43C189.4 429.43 189.5 431.6 189.6 433.69C189.88 439.85 190.14 445.69 194.32 448.97C196.68 450.84 216.83 453.16 223.65 450.42C224.42 450.11 225.36 449.59 225.45 448.89C225.99 444.98 213.3 436.84 205.17 432.62C204.941 432.497 204.768 432.289 204.69 432.04C204.611 431.792 204.633 431.523 204.75 431.29C204.875 431.062 205.084 430.892 205.332 430.816C205.58 430.739 205.848 430.762 206.08 430.88C209.79 432.8 228.28 442.74 227.4 449.16C227.22 450.47 226.21 451.51 224.4 452.24C221.81 453.26 217.69 453.68 213.24 453.68Z" fill="#100049"/>
    <path d="M139.1 433.76C137.275 433.82 135.464 433.425 133.83 432.61C129.83 430.39 121.97 401.34 120.44 395.53C120.379 395.277 120.419 395.01 120.551 394.786C120.684 394.562 120.899 394.398 121.15 394.33C121.402 394.268 121.668 394.307 121.891 394.438C122.115 394.568 122.28 394.781 122.35 395.03C126.74 411.71 132.6 429.68 134.78 430.89C138.04 432.68 146.01 432 151.07 426.89C155.97 421.89 158.07 400.06 158.12 399.84C158.148 399.582 158.275 399.344 158.475 399.178C158.675 399.012 158.931 398.93 159.19 398.95C159.45 398.978 159.689 399.106 159.855 399.308C160.022 399.51 160.103 399.769 160.08 400.03C159.99 400.96 157.86 422.81 152.47 428.27C148.885 431.751 144.097 433.717 139.1 433.76Z" fill="#100049"/>
    <path d="M126.66 453.68C122.2 453.68 118.08 453.26 115.55 452.24C113.73 451.51 112.71 450.47 112.55 449.16C111.67 442.74 130.16 432.8 133.87 430.88C133.985 430.788 134.12 430.723 134.263 430.689C134.407 430.655 134.556 430.653 134.7 430.684C134.844 430.714 134.98 430.776 135.097 430.865C135.215 430.954 135.311 431.068 135.38 431.199C135.448 431.329 135.487 431.473 135.493 431.621C135.499 431.768 135.472 431.915 135.415 432.051C135.358 432.186 135.271 432.308 135.161 432.406C135.052 432.505 134.921 432.578 134.78 432.62C126.66 436.84 113.96 444.98 114.5 448.89C114.6 449.59 115.5 450.11 116.3 450.42C123.13 453.16 143.3 450.84 145.64 448.97C149.81 445.66 150.08 439.85 150.36 433.69C150.45 431.6 150.55 429.45 150.82 427.43C150.855 427.165 150.993 426.924 151.205 426.761C151.417 426.598 151.685 426.526 151.95 426.56C152.215 426.595 152.456 426.733 152.619 426.945C152.782 427.157 152.855 427.425 152.82 427.69C152.56 429.62 152.47 431.74 152.37 433.78C152.08 440.11 151.78 446.65 146.91 450.51C144.72 452.19 135.1 453.68 126.66 453.68Z" fill="#100049"/>
    <path d="M67.0001 285C64.6301 285 61.3001 283.95 59.0001 279C57.7001 276.24 58.0001 272.9 59.7501 269.31C63.2301 262.31 71.6501 255.97 76.8601 254.89C77.3729 254.78 77.8956 254.723 78.4201 254.72C82.3501 254.72 84.7801 257.99 85.7501 261.05C86.5101 263.48 86.5901 266.62 84.9501 267.77C81.3301 270.3 77.9501 275.63 75.6701 279.16C74.8901 280.38 74.2701 281.35 73.8001 281.96C72.9439 282.916 71.8959 283.681 70.7242 284.205C69.5525 284.729 68.2835 285 67.0001 285ZM78.3801 256.66C77.9898 256.66 77.6007 256.704 77.2201 256.79C72.5501 257.79 64.6501 263.79 61.4701 270.16C59.9401 273.23 59.7001 275.91 60.7401 278.16C62.2501 281.37 64.4101 283.06 67.0001 283.06C67.9783 283.048 68.9439 282.838 69.8379 282.44C70.732 282.043 71.5357 281.468 72.2001 280.75C72.6201 280.22 73.2501 279.23 73.9801 278.09C76.3101 274.44 79.8401 268.91 83.7801 266.16C84.2101 265.85 84.6001 264.09 83.7801 261.64C83.4201 260.42 82.0001 256.63 78.3401 256.63L78.3801 256.66Z" fill="#100049"/>
    <path d="M100.71 278.75C100.598 278.749 100.486 278.728 100.38 278.69C95.2201 276.89 84.1601 268.05 83.6901 267.69C83.5404 267.513 83.457 267.289 83.4542 267.057C83.4514 266.825 83.5293 266.599 83.6747 266.418C83.8201 266.237 84.0239 266.113 84.2511 266.066C84.4783 266.019 84.7148 266.052 84.9201 266.16C85.0301 266.24 96.1801 275.16 101.03 276.85C101.238 276.937 101.41 277.092 101.519 277.289C101.628 277.486 101.667 277.714 101.63 277.937C101.593 278.159 101.482 278.362 101.315 278.513C101.148 278.665 100.935 278.755 100.71 278.77V278.75Z" fill="#100049"/>
    <path d="M97.5801 317.09C97.416 317.089 97.2546 317.048 97.1101 316.97C82.5301 309 69.3501 285.46 68.8001 284.46C68.7178 284.347 68.6602 284.218 68.631 284.081C68.6017 283.944 68.6015 283.803 68.6304 283.666C68.6592 283.529 68.7165 283.399 68.7985 283.286C68.8804 283.173 68.9853 283.078 69.1063 283.007C69.2272 282.937 69.3616 282.893 69.5007 282.878C69.6398 282.863 69.7805 282.877 69.9138 282.919C70.0471 282.962 70.1699 283.032 70.2743 283.125C70.3788 283.219 70.4625 283.333 70.5201 283.46C70.6501 283.7 83.9701 307.54 98.0501 315.19C98.2761 315.317 98.4441 315.526 98.5187 315.774C98.5933 316.022 98.5687 316.29 98.4501 316.52C98.3714 316.686 98.2485 316.826 98.0951 316.927C97.9416 317.028 97.7635 317.084 97.5801 317.09Z" fill="#100049"/>
    <path d="M59.55 273.32H59.46C52.06 272.65 38.3 260.8 34.88 250C34.0741 247.518 33.8195 244.89 34.1338 242.299C34.4481 239.708 35.3239 237.217 36.7 235C38.2224 232.581 40.2485 230.518 42.6404 228.953C45.0323 227.388 47.7335 226.357 50.56 225.93C58.88 224.56 63.73 231.93 66 236.93C66.2428 236.138 66.6255 235.397 67.13 234.74C67.7329 234.005 68.4871 233.408 69.3413 232.991C70.1955 232.573 71.1296 232.344 72.08 232.32C72.6348 232.279 73.1918 232.361 73.7107 232.562C74.2296 232.763 74.6973 233.076 75.08 233.48C79.36 237.84 78.12 254 78 255.87C77.9746 256.128 77.8499 256.366 77.6521 256.534C77.4543 256.702 77.1989 256.787 76.94 256.77C76.6818 256.745 76.4436 256.62 76.2756 256.422C76.1077 256.224 76.0232 255.969 76.04 255.71C76.44 250.98 76.8 238.02 73.69 234.88C73.5128 234.679 73.2914 234.522 73.0433 234.422C72.7951 234.321 72.527 234.279 72.26 234.3C71.5767 234.304 70.9027 234.459 70.2858 234.753C69.6688 235.046 69.1241 235.472 68.69 236C67.09 238 67.59 241.24 67.6 241.28C67.6068 241.513 67.532 241.741 67.3885 241.925C67.245 242.108 67.0418 242.236 66.8141 242.286C66.5864 242.336 66.3485 242.304 66.1414 242.198C65.9343 242.091 65.7711 241.915 65.68 241.7C65.68 241.55 61.24 226.22 50.88 227.91C48.3382 228.287 45.9066 229.205 43.7488 230.6C41.591 231.995 39.7569 233.837 38.37 236C37.1416 237.981 36.3611 240.207 36.083 242.522C35.8049 244.837 36.036 247.184 36.76 249.4C39.89 259.28 52.86 270.72 59.63 271.32C59.8952 271.331 60.1454 271.446 60.3254 271.641C60.5055 271.836 60.6006 272.095 60.59 272.36C60.5794 272.625 60.4639 272.875 60.2688 273.055C60.0738 273.235 59.8152 273.331 59.55 273.32Z" fill="#100049"/>
    <path d="M272.93 340.72C269.46 340.72 266.75 338.31 265.67 334.26C264.93 331.49 265.13 328.14 266.94 327.11C270.78 324.91 274.65 319.91 277.21 316.61C278.1 315.45 278.81 314.54 279.33 313.98C281.026 312.389 283.264 311.502 285.59 311.5C287.74 311.5 291.66 312.38 293.81 318.27C294.81 321.13 294.28 324.45 292.18 327.85C288.09 334.46 279.12 340.07 273.83 340.67C273.52 340.7 273.22 340.72 272.93 340.72ZM285.59 313.47C283.809 313.472 282.091 314.135 280.77 315.33C280.31 315.82 279.6 316.74 278.77 317.81C276.11 321.24 272.1 326.42 267.92 328.81C267.35 329.14 266.92 331.28 267.57 333.76C267.88 334.93 269.19 338.76 272.93 338.76C273.157 338.774 273.384 338.774 273.61 338.76C278.35 338.22 286.76 332.91 290.5 326.86C292.31 323.95 292.79 321.3 291.96 319C290.65 315.37 288.45 313.47 285.59 313.47Z" fill="#100049"/>
    <path d="M267.43 328.94C267.177 328.939 266.934 328.843 266.75 328.67C266.65 328.57 256.35 318.67 251.67 316.56C251.435 316.447 251.253 316.247 251.164 316.003C251.074 315.758 251.084 315.488 251.19 315.25C251.303 315.018 251.501 314.838 251.743 314.748C251.986 314.659 252.253 314.667 252.49 314.77C257.49 317.03 267.68 326.84 268.12 327.25C268.253 327.39 268.343 327.565 268.379 327.754C268.415 327.944 268.395 328.14 268.323 328.319C268.25 328.497 268.127 328.651 267.968 328.761C267.81 328.871 267.623 328.934 267.43 328.94Z" fill="#100049"/>
    <path d="M283.57 313.26C283.388 313.259 283.21 313.208 283.055 313.112C282.9 313.017 282.774 312.882 282.69 312.72C282.47 312.29 260.9 270.04 238.84 263.29C238.593 263.209 238.388 263.036 238.266 262.807C238.145 262.577 238.118 262.309 238.19 262.06C238.269 261.811 238.441 261.603 238.671 261.48C238.901 261.357 239.17 261.328 239.42 261.4C262.28 268.4 283.55 310.06 284.42 311.83C284.533 312.063 284.552 312.331 284.472 312.577C284.391 312.823 284.219 313.028 283.99 313.15C283.86 313.217 283.717 313.255 283.57 313.26Z" fill="#100049"/>
    <path d="M296.41 371.85C288.59 371.85 284.69 364.42 282.95 359.46C282.632 360.226 282.182 360.93 281.62 361.54C280.953 362.217 280.15 362.746 279.264 363.091C278.378 363.435 277.43 363.589 276.48 363.54C275.927 363.529 275.383 363.395 274.889 363.148C274.394 362.901 273.961 362.546 273.62 362.11C269.73 357.39 272.43 341.37 272.75 339.56C272.799 339.305 272.945 339.078 273.158 338.929C273.371 338.78 273.633 338.719 273.89 338.76C274.146 338.809 274.372 338.955 274.521 339.168C274.671 339.381 274.731 339.643 274.69 339.9C273.86 344.58 272.33 357.45 275.14 360.9C275.298 361.116 275.505 361.292 275.742 361.415C275.98 361.538 276.243 361.605 276.51 361.61C277.183 361.675 277.862 361.588 278.497 361.356C279.132 361.124 279.707 360.753 280.18 360.27C281.95 358.4 281.75 355.15 281.75 355.11C281.747 354.869 281.832 354.635 281.988 354.451C282.144 354.267 282.362 354.146 282.6 354.11C282.851 354.08 283.103 354.146 283.307 354.294C283.511 354.443 283.651 354.663 283.7 354.91C283.7 355.06 286.78 370.78 297.19 369.98C299.762 369.825 302.27 369.12 304.545 367.912C306.821 366.705 308.811 365.023 310.38 362.98C311.784 361.118 312.763 358.972 313.25 356.692C313.737 354.412 313.72 352.053 313.2 349.78C311 339.55 299.09 327 292.4 325.76C292.253 325.761 292.107 325.73 291.973 325.668C291.839 325.606 291.72 325.515 291.626 325.402C291.531 325.289 291.463 325.156 291.425 325.014C291.388 324.871 291.383 324.722 291.41 324.577C291.437 324.432 291.495 324.294 291.582 324.175C291.668 324.055 291.78 323.956 291.909 323.885C292.038 323.814 292.181 323.772 292.328 323.762C292.475 323.753 292.623 323.776 292.76 323.83C300.07 325.15 312.7 338.21 315.13 349.24C315.715 351.788 315.738 354.432 315.198 356.99C314.657 359.548 313.566 361.957 312 364.05C310.261 366.318 308.054 368.186 305.53 369.526C303.006 370.867 300.223 371.649 297.37 371.82L296.41 371.85Z" fill="#100049"/>
    <path d="M139.36 224.78C139.244 224.78 139.129 224.76 139.02 224.72C138.777 224.626 138.58 224.44 138.472 224.203C138.363 223.966 138.352 223.696 138.44 223.45C140.37 218.27 146.28 215.01 152.17 215.85C157.03 216.56 159.96 219.79 161.96 222.53C162.066 222.631 162.148 222.754 162.202 222.89C162.255 223.027 162.277 223.173 162.268 223.319C162.258 223.465 162.216 223.608 162.146 223.736C162.075 223.864 161.977 223.975 161.859 224.061C161.741 224.148 161.605 224.207 161.462 224.235C161.318 224.263 161.17 224.259 161.028 224.224C160.886 224.188 160.753 224.122 160.64 224.03C160.526 223.938 160.434 223.822 160.37 223.69C157.69 220.04 155.16 218.28 151.89 217.8C146.99 217.09 141.89 219.87 140.29 224.14C140.218 224.328 140.09 224.49 139.924 224.604C139.758 224.718 139.561 224.779 139.36 224.78Z" fill="#100049"/>
    <path d="M206.25 224.78C206.05 224.777 205.856 224.715 205.692 224.601C205.528 224.487 205.402 224.326 205.33 224.14C203.74 219.87 198.64 217.14 193.73 217.8C190.46 218.28 187.92 220.04 185.25 223.69C185.186 223.822 185.094 223.938 184.981 224.03C184.867 224.122 184.734 224.188 184.592 224.224C184.45 224.259 184.302 224.263 184.159 224.235C184.015 224.207 183.879 224.148 183.761 224.061C183.643 223.975 183.545 223.864 183.474 223.736C183.404 223.608 183.362 223.465 183.353 223.319C183.343 223.173 183.365 223.027 183.419 222.89C183.472 222.754 183.554 222.631 183.66 222.53C185.66 219.79 188.59 216.53 193.45 215.85C199.34 215.02 205.24 218.27 207.18 223.45C207.268 223.696 207.257 223.966 207.148 224.203C207.04 224.44 206.843 224.626 206.6 224.72C206.488 224.759 206.369 224.78 206.25 224.78Z" fill="#100049"/>
</svg>
